<svg xmlns:xlink="http://www.w3.org/1999/xlink" xmlns="http://www.w3.org/2000/svg" viewBox="0 0 24 24"   aria-labelledby="Dit is een videoitem" role="presentation" data-v-1dd6691c="" width="20"  height="20" ><title lang="nl" data-v-1dd6691c="">Dit is een videoitem</title><g data-v-1dd6691c=""><g fill-rule="evenodd" fill="#FFFFFF" data-v-1dd6691c=""><path d="M12 22.286C6.33 22.286 1.714 17.67 1.714 12S6.33 1.714 12 1.714 22.286 6.329 22.286 12c0 5.67-4.615 10.286-10.286 10.286M12 0C5.373 0 0 5.373 0 12s5.373 12 12 12 12-5.373 12-12S18.627 0 12 0" fill="#FFFFFF"></path><path d="M11.356 8.218a.81.81 0 00-.87-.154.8.8 0 00-.486.735v6.4a.8.8 0 00.803.801c.203 0 .4-.075.553-.218l3.392-3.2a.804.804 0 00.252-.583.801.801 0 00-.252-.58l-3.392-3.2z" fill="#FFFFFF"></path></g></g></svg>